<?xml version="1.0" standalone="no"?>
<!DOCTYPE svg PUBLIC "-//W3C//DTD SVG 20010904//EN"
 "http://www.w3.org/TR/2001/REC-SVG-20010904/DTD/svg10.dtd">
<svg version="1.0" xmlns="http://www.w3.org/2000/svg"
 width="951.509994pt" height="464.202223pt" viewBox="0 0 951.509994 464.202223"
 preserveAspectRatio="xMidYMid meet">
<title>CRAVE — Primary Logo</title>
<g transform="translate(-51.680000,486.320000) scale(0.100000,-0.100000)"
fill="#000000" stroke="none">
<path d="M567 4813 c-4 -3 -7 -773 -7 -1710 l0 -1703 2948 0 2947 0 55 -33
c396 -238 907 -284 1356 -120 l41 14 64 -64 c117 -117 257 -140 419 -70 87 38
132 80 258 243 l24 30 656 2 c361 2 656 6 655 11 -2 4 -3 772 -3 1707 l0 1700
-4703 0 c-2587 0 -4707 -3 -4710 -7z m1913 -928 c90 -29 156 -59 214 -99 55
-37 126 -100 126 -111 0 -6 -37 -53 -82 -105 -46 -51 -95 -107 -109 -123 l-25
-30 -58 46 c-216 177 -490 177 -667 2 -85 -84 -127 -189 -136 -340 -19 -345
277 -584 607 -490 73 20 205 106 233 152 15 24 31 13 147 -98 l115 -109 -66
-64 c-170 -163 -334 -227 -579 -227 -397 0 -709 234 -807 606 -25 98 -25 322
0 420 70 266 282 488 546 571 141 44 403 43 541 -1z m3134 9 c9 -8 16 -20 16
-25 0 -6 8 -29 19 -52 10 -23 35 -80 56 -127 20 -47 45 -103 55 -125 10 -22
55 -125 100 -230 45 -104 90 -208 100 -230 22 -50 87 -200 105 -240 231 -533
357 -756 527 -933 270 -281 645 -425 1021 -392 115 10 312 47 372 70 l30 12
-22 16 c-12 9 -34 25 -49 36 -75 53 -82 206 -12 267 60 52 102 61 263 56 83
-3 177 -12 210 -20 33 -8 89 -20 125 -26 56 -10 160 -32 167 -36 6 -3 -39
-111 -107 -260 -79 -171 -134 -258 -203 -322 -147 -135 -336 -62 -325 126 l4
69 -56 -28 c-503 -251 -975 -240 -1435 34 -27 16 -57 35 -65 43 -8 7 -44 36
-80 64 -229 181 -394 416 -570 814 -17 39 -35 79 -40 90 -20 43 -180 427 -180
430 0 3 -13 33 -29 67 -15 35 -52 122 -80 193 -71 175 -71 175 -111 73 -18
-46 -42 -103 -52 -128 -24 -55 -26 -59 -83 -195 -26 -60 -69 -164 -96 -230
-27 -66 -54 -129 -59 -140 -5 -11 -25 -60 -45 -110 -54 -131 -76 -179 -89
-187 -16 -11 -354 -10 -360 1 -5 8 33 104 104 266 10 22 30 69 45 105 15 36
50 117 77 180 28 63 61 140 74 170 12 30 42 98 65 150 23 52 59 138 81 190 22
52 52 124 68 160 16 36 40 93 54 128 15 34 40 92 56 128 17 35 30 69 30 74 0
32 32 40 170 40 113 0 142 -3 154 -16z m2972 -4 l575 0 -3 -152 -3 -153 -422
-3 -423 -2 0 -155 0 -155 373 -2 372 -3 0 -155 0 -155 -372 -3 -373 -2 0 -160
0 -160 419 0 c231 0 426 -3 435 -6 21 -8 24 -282 4 -302 -18 -18 -1191 -17
-1206 1 -6 8 -10 278 -10 785 0 706 2 773 17 782 9 5 22 7 29 5 8 -3 272 -5
588 -5z m-4558 -15 c199 -42 326 -155 386 -343 75 -237 -27 -501 -236 -615
-38 -21 -57 -37 -55 -47 2 -8 49 -82 103 -163 54 -82 106 -159 114 -171 8 -13
43 -64 78 -115 34 -51 60 -97 56 -102 -3 -5 -92 -9 -199 -9 l-193 0 -22 28
c-24 29 -292 438 -310 472 -10 19 -20 20 -150 20 l-140 0 -2 -257 -3 -258
-175 0 -175 0 -3 788 -2 787 427 0 c346 0 442 -3 501 -15z m2482 -8 c0 -13 4
-27 9 -32 5 -6 22 -46 38 -90 78 -207 236 -623 248 -650 7 -16 34 -84 60 -150
52 -134 60 -147 70 -114 4 13 13 38 21 54 7 17 20 48 27 70 41 113 120 324
132 350 7 17 32 80 55 140 23 61 61 164 86 229 25 66 54 141 66 168 l20 48
189 0 c115 0 189 -4 189 -10 0 -10 -32 -95 -55 -145 -8 -16 -23 -52 -33 -80
-11 -27 -43 -106 -71 -175 -29 -69 -68 -165 -87 -215 -20 -49 -45 -110 -56
-134 -30 -67 -119 -281 -134 -324 -16 -43 -93 -230 -161 -389 -53 -125 -40
-118 -220 -118 -158 0 -136 -19 -221 195 -33 83 -69 171 -80 196 -12 25 -31
70 -42 100 -12 30 -28 68 -35 84 -13 30 -110 267 -252 615 -41 102 -79 194
-84 205 -29 66 -69 172 -69 183 0 9 46 12 195 12 l195 0 0 -23z"/>
<path d="M3471 3566 c-8 -9 -11 -75 -9 -217 l3 -204 205 -3 c271 -4 335 16
380 120 59 136 -3 268 -143 305 -74 19 -420 18 -436 -1z"/>
<path d="M1230 776 c-241 -50 -273 -386 -47 -486 92 -41 215 -24 275 36 l35
35 -28 29 c-33 35 -48 37 -76 12 -50 -48 -134 -46 -187 2 -79 70 -67 214 21
263 35 20 117 16 155 -7 41 -25 44 -25 80 7 74 64 -83 139 -228 109z"/>
<path d="M2853 776 c-254 -50 -269 -429 -19 -497 98 -27 237 6 267 63 18 33
-42 89 -74 69 -102 -65 -204 -49 -239 39 -26 64 -27 93 -6 142 36 84 126 113
213 68 51 -26 56 -25 89 9 36 38 30 53 -36 84 -68 32 -117 38 -195 23z"/>
<path d="M4280 774 c-142 -38 -225 -207 -167 -340 71 -165 266 -221 404 -117
45 34 46 46 7 77 l-35 27 -42 -24 c-90 -52 -164 -35 -212 47 -85 144 68 298
210 212 l40 -25 33 32 c17 17 32 36 32 43 0 22 -65 61 -124 72 -72 15 -77 14
-146 -4z"/>
<path d="M7853 780 c-129 -26 -207 -123 -207 -256 1 -192 168 -299 371 -239
90 27 99 40 106 151 8 131 14 124 -109 124 -101 0 -104 -1 -110 -24 -12 -50
-3 -61 56 -66 53 -5 55 -6 58 -35 3 -41 -6 -52 -60 -66 -96 -26 -188 42 -195
144 -10 131 109 204 236 147 l44 -21 29 28 c15 15 28 32 28 38 0 23 -53 56
-113 70 -69 16 -74 16 -134 5z"/>
<path d="M8465 784 c-5 -1 -31 -5 -57 -9 -34 -4 -62 -17 -98 -46 -183 -144
-109 -422 123 -459 240 -38 398 229 248 419 -44 55 -167 110 -216 95z m71
-119 c59 -29 78 -60 82 -133 4 -65 3 -68 -33 -109 -127 -148 -342 35 -230 197
41 59 116 78 181 45z"/>
<path d="M665 768 c-49 -19 -94 -84 -95 -136 0 -72 38 -112 135 -142 118 -36
135 -46 135 -79 0 -58 -80 -65 -174 -15 l-50 27 -28 -32 c-36 -40 -35 -46 10
-75 113 -75 296 -56 342 35 57 111 -1 192 -165 229 -67 15 -87 31 -83 67 5 43
61 54 131 25 29 -12 57 -22 62 -22 15 0 54 61 49 75 -16 40 -199 70 -269 43z"/>
<path d="M1732 738 c-30 -66 -192 -447 -192 -453 0 -3 25 -5 55 -5 l56 0 20
47 c27 62 28 63 142 63 l98 0 25 -54 c24 -53 26 -54 70 -58 68 -5 72 2 42 69
-14 32 -40 92 -58 133 -41 96 -52 122 -84 192 -14 31 -30 68 -36 82 -9 24 -15
26 -64 26 -54 0 -54 0 -74 -42z m109 -173 c39 -86 39 -85 -36 -85 -36 0 -65 3
-65 6 0 18 55 144 62 144 5 0 22 -29 39 -65z"/>
<path d="M2155 759 c-3 -13 -4 -125 -3 -249 l3 -225 53 -3 52 -3 0 68 c0 78 9
93 56 93 30 0 38 -8 86 -77 l53 -78 63 -3 c34 -2 62 -1 62 2 0 3 -22 38 -50
78 -58 84 -60 96 -20 123 83 55 80 194 -5 259 -37 29 -41 29 -191 34 l-153 5
-6 -24z m284 -103 c36 -33 26 -88 -20 -111 -39 -21 -145 -20 -153 1 -9 22 -7
119 2 128 15 16 149 2 171 -18z"/>
<path d="M3215 770 c-11 -18 -18 -252 -10 -372 l7 -118 190 0 189 0 -3 46 -3
46 -130 1 -130 2 -3 53 c-2 37 1 52 10 53 7 0 54 0 103 -1 116 -1 125 2 125
50 0 48 -6 50 -136 50 l-104 0 0 50 0 49 133 3 132 3 0 45 0 45 -182 3 c-116
1 -184 -1 -188 -8z"/>
<path d="M4657 773 c-4 -3 -7 -116 -7 -250 l0 -244 53 3 52 3 5 75 5 75 35 3
c44 3 46 1 103 -85 l47 -73 60 0 c33 0 60 3 60 7 0 4 -23 42 -51 85 l-51 78
47 43 48 43 0 73 c0 72 -1 73 -41 113 -31 32 -51 43 -89 49 -59 10 -267 11
-276 2z m257 -104 c32 -15 51 -60 37 -87 -20 -38 -58 -53 -124 -50 l-62 3 -3
73 -3 72 65 0 c36 0 76 -5 90 -11z"/>
<path d="M5332 767 c-6 -6 -14 -26 -18 -42 -4 -17 -10 -35 -15 -40 -7 -10 -27
-54 -135 -310 -43 -100 -44 -95 21 -95 53 0 54 1 70 37 32 72 23 68 141 68
l108 0 21 -52 20 -53 57 0 c32 0 58 2 58 4 0 4 -25 65 -50 121 -10 22 -32 74
-49 115 -18 41 -51 117 -73 168 l-41 92 -52 0 c-30 0 -57 -5 -63 -13z m98
-203 c39 -87 40 -84 -35 -84 -74 0 -77 4 -46 72 11 24 22 51 25 61 10 31 25
18 56 -49z"/>
<path d="M5640 765 c0 -8 9 -34 19 -57 36 -80 71 -165 71 -172 0 -4 11 -31 24
-59 13 -29 29 -70 36 -92 30 -93 47 -115 89 -115 49 0 71 8 71 26 0 8 9 33 19
57 10 23 31 69 46 102 15 33 31 74 35 90 5 17 24 66 44 110 50 112 49 124 -14
123 -56 0 -61 -4 -84 -73 -31 -97 -95 -250 -105 -253 -14 -5 -26 22 -77 164
-61 173 -55 164 -119 164 -42 0 -55 -4 -55 -15z"/>
<path d="M6218 770 c-1 -5 -2 -118 0 -250 l3 -240 189 0 190 0 0 45 0 45 -124
0 c-151 0 -156 1 -156 49 0 56 11 61 131 61 114 0 119 2 119 55 0 37 -20 44
-136 47 l-109 3 0 45 0 45 115 2 c157 4 163 6 157 47 -2 19 -8 39 -11 45 -9
14 -363 15 -368 1z"/>
<path d="M6707 773 c-4 -3 -7 -116 -7 -250 l0 -243 131 0 c153 0 195 10 252
60 151 133 71 397 -130 430 -66 11 -236 13 -246 3z m272 -117 c20 -11 40 -33
52 -59 50 -110 -7 -205 -134 -222 -88 -12 -87 -13 -87 140 0 173 -2 169 74
163 34 -3 77 -13 95 -22z"/>
<path d="M8835 758 c-3 -13 -4 -124 -3 -248 l3 -225 40 -5 c73 -11 75 -7 75
150 0 77 4 140 8 140 8 0 40 -41 176 -222 l51 -68 52 0 53 0 -2 248 -3 247
-50 0 -50 0 -3 -142 c-2 -119 -5 -143 -18 -143 -8 0 -17 8 -21 18 -4 9 -18 31
-32 48 -14 17 -35 44 -46 59 -37 51 -117 150 -129 157 -6 4 -30 8 -53 8 -36 0
-43 -4 -48 -22z"/>
<path d="M9413 768 c-5 -8 -7 -112 -5 -251 l4 -237 187 2 186 3 3 34 c5 50 -6
55 -123 52 -141 -3 -145 -2 -145 60 l0 49 109 0 c118 0 129 5 127 53 -1 40
-19 47 -133 47 -110 0 -110 0 -105 61 l4 39 128 0 128 0 4 29 c10 70 8 71
-185 71 -128 0 -177 -3 -184 -12z"/>
<path d="M7224 387 c-3 -8 -4 -34 -2 -58 l3 -44 59 0 58 0 3 41 c4 55 -1 60
-62 69 -42 5 -54 4 -59 -8z"/>
<path d="M9878 389 c-5 -3 -8 -28 -6 -55 l3 -49 55 0 55 0 3 53 c2 37 -1 52
-10 54 -33 4 -91 2 -100 -3z"/>
<path d="M3680 335 l0 -55 53 0 c65 0 63 -3 59 59 l-4 51 -54 0 -54 0 0 -55z"/>
</g>
</svg>
